<svg width="12" height="14" viewBox="0 0 12 14" fill="none" xmlns="http://www.w3.org/2000/svg">
<path d="M5.3335 3.66667C4.97987 3.66667 4.64074 3.52619 4.39069 3.27614C4.14064 3.02609 4.00016 2.68696 4.00016 2.33333C4.00016 1.97971 4.14064 1.64057 4.39069 1.39052C4.64074 1.14048 4.97987 1 5.3335 1C5.68712 1 6.02626 1.14048 6.2763 1.39052C6.52635 1.64057 6.66683 1.97971 6.66683 2.33333C6.66683 2.68696 6.52635 3.02609 6.2763 3.27614C6.02626 3.52619 5.68712 3.66667 5.3335 3.66667ZM5.3335 3.66667V9H8.00016L10.6668 12.3333M5.3335 6.33333H8.66683M2.66684 6.66667C2.18916 6.86448 1.76406 7.1707 1.42512 7.56111C1.08618 7.95152 0.842701 8.41542 0.713931 8.91614C0.585161 9.41686 0.574631 9.94067 0.683172 10.4462C0.791713 10.9516 1.01635 11.425 1.33932 11.8287C1.6623 12.2324 2.07476 12.5555 2.54409 12.7723C3.01342 12.9892 3.52677 13.0939 4.04354 13.0782C4.56031 13.0624 5.06634 12.9267 5.52163 12.6818C5.97692 12.4368 6.36899 12.0893 6.66684 11.6667" stroke="white" stroke-linecap="round" stroke-linejoin="round"/>
</svg>
