<?xml version="1.0" encoding="UTF-8" standalone="no"?>
<svg width="120px" height="120px" viewBox="0 0 120 120" version="1.1" xmlns="http://www.w3.org/2000/svg" xmlns:xlink="http://www.w3.org/1999/xlink">
    <!-- Generator: Sketch 48.2 (47327) - http://www.bohemiancoding.com/sketch -->
    <title>lineas/XL/10</title>
    <desc>Created with Sketch.</desc>
    <defs></defs>
    <g id="Symbols" stroke="none" stroke-width="1" fill="none" fill-rule="evenodd">
        <g id="lineas/XL/10">
            <g id="Page-1">
                <polygon id="Fill-1" fill="#005FA9" points="0 119.983662 119.885047 119.983662 119.885047 0 0 0"></polygon>
                <g id="Group-6" transform="translate(10.093458, 14.631549)" fill="#FEFEFE">
                    <path d="M0.215943925,28.5995493 L0.215943925,16.7172958 C5.29968224,16.4789859 8.86379439,16.1353239 10.880243,15.6277183 C14.1337009,14.8665915 16.751271,13.3285634 18.789028,10.9854648 C20.1976262,9.40349296 21.2411776,7.2536338 21.9656636,4.64123944 C22.3806168,3.02940845 22.573514,1.85025352 22.573514,1.05926761 L36.0695888,1.05926761 L36.0695888,89.7854648 L19.5208037,89.7854648 L19.5208037,28.5995493 L0.215943925,28.5995493 Z" id="Fill-2"></path>
                    <path d="M61.6804486,69.6786479 C63.2348411,75.0820282 66.4254953,77.7992113 71.2053084,77.7992113 C75.9851215,77.7992113 79.1415701,75.0820282 80.6331589,69.6786479 C82.1253084,64.2899155 82.8503551,56.4831549 82.8503551,46.287662 C82.8503551,35.6155493 82.1253084,27.6893521 80.6331589,22.5389296 C79.1415701,17.4037183 75.9851215,14.852169 71.2053084,14.852169 C66.4254953,14.852169 63.2348411,17.4037183 61.6804486,22.5389296 C60.1406355,27.6893521 59.3600748,35.6155493 59.3600748,46.287662 C59.3600748,56.4831549 60.1406355,64.2899155 61.6804486,69.6786479 M93.1899813,12.388507 C97.4101682,20.3597746 99.4961495,31.6442817 99.4961495,46.287662 C99.4961495,60.9462535 97.4101682,72.1862535 93.1899813,80.1124507 C88.9911028,88.0386479 81.6419439,91.9800563 71.2053084,91.9800563 C60.748486,91.9800563 53.3925981,88.0386479 49.1931589,80.1124507 C45.0004486,72.1862535 42.8869907,60.9462535 42.8869907,46.287662 C42.8869907,31.6442817 45.0004486,20.3597746 49.1931589,12.388507 C53.3925981,4.43301408 60.748486,0.447098592 71.2053084,0.447098592 C81.6419439,0.447098592 88.9911028,4.43301408 93.1899813,12.388507" id="Fill-4"></path>
                </g>
            </g>
        </g>
    </g>
</svg>