<?xml version="1.0" encoding="UTF-8" standalone="no"?>
<svg width="120px" height="120px" viewBox="0 0 120 120" version="1.1" xmlns="http://www.w3.org/2000/svg" xmlns:xlink="http://www.w3.org/1999/xlink">
    <!-- Generator: Sketch 48.2 (47327) - http://www.bohemiancoding.com/sketch -->
    <title>lineas/XL/11</title>
    <desc>Created with Sketch.</desc>
    <defs></defs>
    <g id="Symbols" stroke="none" stroke-width="1" fill="none" fill-rule="evenodd">
        <g id="lineas/XL/11">
            <g id="Page-1">
                <polygon id="Fill-1" fill="#009739" points="0 119.983662 119.885047 119.983662 119.885047 0 0 0"></polygon>
                <g id="Group-6" transform="translate(20.186916, 15.194930)" fill="#FEFEFE">
                    <path d="M0.38635514,27.828 L0.38635514,15.9784225 C5.46560748,15.7096901 9.00897196,15.3581408 11.0708411,14.856169 C14.2957009,14.0787042 16.9396262,12.5372958 18.96,10.2032113 C20.3439252,8.61785915 21.3964486,6.49278873 22.1153271,3.85222535 C22.5308411,2.25898592 22.7248598,1.07701408 22.7248598,0.299549296 L36.2192523,0.299549296 L36.2192523,89.0201127 L19.6934579,89.0201127 L19.6934579,27.828 L0.38635514,27.828 Z" id="Fill-2"></path>
                    <path d="M41.0634953,27.828 L41.0634953,15.9784225 C46.1702243,15.7096901 49.6861121,15.3581408 51.7479813,14.856169 C54.9588224,14.0787042 57.6162056,12.5372958 59.6646168,10.2032113 C61.0345234,8.61785915 62.0724673,6.49278873 62.8059252,3.85222535 C63.2354579,2.25898592 63.4289159,1.07701408 63.4289159,0.299549296 L76.8958318,0.299549296 L76.8958318,89.0201127 L60.3565794,89.0201127 L60.3565794,27.828 L41.0634953,27.828 Z" id="Fill-4"></path>
                </g>
            </g>
        </g>
    </g>
</svg>