<?xml version="1.0" encoding="UTF-8" standalone="no"?>
<svg width="120px" height="120px" viewBox="0 0 120 120" version="1.1" xmlns="http://www.w3.org/2000/svg" xmlns:xlink="http://www.w3.org/1999/xlink">
    <!-- Generator: Sketch 48.2 (47327) - http://www.bohemiancoding.com/sketch -->
    <title>lineas/XL/02</title>
    <desc>Created with Sketch.</desc>
    <defs></defs>
    <g id="Symbols" stroke="none" stroke-width="1" fill="none" fill-rule="evenodd">
        <g id="lineas/XL/02">
            <g id="Page-1">
                <polygon id="Fill-1" fill="#E0292F" points="0 119.422991 119.885047 119.422991 119.885047 0 0 0"></polygon>
                <path d="M32.8664299,51.6684112 L48.1563364,51.6684112 C48.1563364,49.4153271 48.3413832,47.1471028 48.7198879,44.8856075 C49.1656822,42.5506542 49.8660561,40.4669159 50.848486,38.6057944 C51.8303551,36.6841121 53.1015701,35.1398131 54.6677383,34.024486 C56.3225047,32.8127103 58.2940935,32.2071028 60.6155888,32.2071028 C64.0709159,32.2071028 66.8797009,33.3740187 69.0503551,35.7241121 C71.2826916,37.9626168 72.4226916,41.1471028 72.4226916,45.2557009 C72.4226916,47.8413084 71.8451215,50.1319626 70.7264299,52.1411215 C69.675028,54.1581308 68.3426916,55.968785 66.6940935,57.5938318 C65.121757,59.1902804 63.3492336,60.6824299 61.4118505,62.0714019 C59.4615701,63.3426168 57.6279252,64.6278505 55.8974579,65.928785 C52.5380187,68.4263551 49.3097944,70.8790654 46.2464299,73.2947664 C43.2520374,75.7115888 40.6282991,78.3785047 38.368486,81.2669159 C36.1434393,84.0902804 34.3299813,87.3117757 32.9903551,90.9465421 C31.712972,94.566729 31.0669907,98.8373832 31.0669907,103.758505 L88.8318505,103.758505 L88.8318505,88.9957009 L51.6245607,88.9957009 C53.5955888,86.1145794 55.828486,83.5727103 58.3832523,81.3857944 C60.9178318,79.2207477 63.555028,77.2037383 66.2410093,75.3493458 C68.9197009,73.4203738 71.5916636,71.4852336 74.2154019,69.548972 C76.9081121,67.6127103 79.3120374,65.4700935 81.4137196,63.1351402 C83.4946542,60.7272897 85.1909159,57.9857944 86.4621308,54.9269159 C87.739514,51.8607477 88.3647477,48.1957009 88.3647477,43.9256075 C88.3647477,39.8170093 87.6228785,36.1082243 86.1251215,32.8127103 C84.7103551,29.5026168 82.752785,26.7392523 80.2804486,24.4637383 C77.8148411,22.2246729 74.9365234,20.4885981 71.6258692,19.2768224 C68.4178318,18.0650467 64.9978318,17.4588785 61.4118505,17.4588785 C56.6931589,17.4588785 52.5038131,18.3459813 48.8225047,20.1269159 C45.2230654,21.8186916 42.2426916,24.2276636 39.8314766,27.3751402 C37.4348411,30.4340187 35.6488598,34.0542056 34.4466168,38.2508411 C33.2449346,42.3661682 32.7161495,46.8291589 32.8664299,51.6684112" id="Fill-2" fill="#FEFEFE"></path>
            </g>
        </g>
    </g>
</svg>