<?xml version="1.0" encoding="UTF-8" standalone="no"?>
<svg width="120px" height="120px" viewBox="0 0 120 120" version="1.1" xmlns="http://www.w3.org/2000/svg" xmlns:xlink="http://www.w3.org/1999/xlink">
    <!-- Generator: Sketch 48.2 (47327) - http://www.bohemiancoding.com/sketch -->
    <title>lineas/XL/05</title>
    <desc>Created with Sketch.</desc>
    <defs></defs>
    <g id="Symbols" stroke="none" stroke-width="1" fill="none" fill-rule="evenodd">
        <g id="lineas/XL/05">
            <g id="Page-1">
                <polygon id="Fill-1" fill="#98BE13" points="0 119.983662 119.885047 119.983662 119.885047 0 0 0"></polygon>
                <path d="M47.6698879,79.1496901 C48.300729,82.9620845 49.5483925,85.8832113 51.3220374,87.9344789 C53.151757,90.0020845 55.7777383,91.0347606 59.2498879,91.0347606 C63.227271,91.0347606 66.2693271,89.5074366 68.3553084,86.4663099 C70.4620374,83.4268732 71.4943738,79.6223662 71.4943738,75.0082817 C71.4943738,70.4702535 70.5102617,66.6657465 68.5560561,63.5350423 C66.6018505,60.4049014 63.5457757,58.8618028 59.4085794,58.8618028 C57.4482056,58.8618028 55.7642804,59.1164507 54.3158692,59.6708169 C51.8076449,60.6296901 49.9083925,62.4347606 48.6192336,65.1001127 L34.1569907,64.3739155 L39.9298879,15.3502535 L85.076243,15.3502535 L85.076243,30.1710986 L51.5508224,30.1710986 L48.6192336,49.5603944 C51.107271,47.8003944 53.0541869,46.6477183 54.4403551,46.0708169 C56.7898879,45.112507 59.6239065,44.6550423 62.9844673,44.6550423 C69.7616636,44.6550423 75.6663364,47.1412394 80.7315701,52.0618028 C85.782785,57.004338 88.3055888,64.1795493 88.3055888,73.6156056 C88.3055888,81.8009577 85.8668972,89.1175775 81.0018505,95.5665915 C76.1581121,102.006592 68.8745607,105.220113 59.1870841,105.220113 C51.3848411,105.220113 44.9676449,102.957577 39.9511963,98.4268732 C34.9403551,93.9108169 32.1618505,87.4854648 31.5932523,79.1496901 L47.6698879,79.1496901 Z" id="Fill-2" fill="#FEFEFE"></path>
            </g>
        </g>
    </g>
</svg>