<?xml version="1.0" encoding="UTF-8" standalone="no"?>
<svg width="120px" height="120px" viewBox="0 0 120 120" version="1.1" xmlns="http://www.w3.org/2000/svg" xmlns:xlink="http://www.w3.org/1999/xlink">
    <!-- Generator: Sketch 48.2 (47327) - http://www.bohemiancoding.com/sketch -->
    <title>lineas/XL/09</title>
    <desc>Created with Sketch.</desc>
    <defs></defs>
    <g id="Symbols" stroke="none" stroke-width="1" fill="none" fill-rule="evenodd">
        <g id="lineas/XL/09">
            <g id="Page-1">
                <polygon id="Fill-1" fill="#9E2F8A" points="0 119.983662 119.885047 119.983662 119.885047 0 0 0"></polygon>
                <path d="M66.6675701,58.8945352 C70.3393458,56.3672113 72.1505607,51.9936901 72.1505607,45.7424225 C72.1505607,40.7176338 71.0840187,36.7435493 68.9105607,33.8167887 C66.7230841,30.8911549 63.7488785,29.3841127 59.9885047,29.3841127 C57.2262617,29.3841127 54.8750467,30.2410141 52.9129907,31.9255211 C49.8154206,34.5266479 48.2778505,38.9300282 48.2778505,45.1812958 C48.2778505,50.4567887 49.2619626,54.4015775 51.2313084,57.0173521 C53.2270093,59.6624225 56.2763551,60.9784789 60.3984112,60.9784789 C62.6071963,60.9784789 64.7060748,60.283831 66.6675701,58.8945352 M39.5128037,23.6945352 C44.5926168,17.7835493 51.1830841,14.8427042 59.312243,14.8427042 C71.7956075,14.8427042 80.3683178,20.827493 85.0169159,32.7824225 C87.6423364,39.5503099 88.9892523,48.4466479 88.9892523,59.5148169 C88.9892523,70.2286197 87.7180374,79.1987606 85.1671963,86.3655211 C80.3341121,100.034817 71.4804673,106.847211 58.5731776,106.847211 C52.4066355,106.847211 46.883271,104.896789 41.9885047,100.950873 C37.0864486,97.0196056 34.2625234,91.272 33.558785,83.7204507 L49.6247664,83.7204507 C49.9937383,86.335662 51.0260748,88.4787606 52.6735514,90.1046761 C54.3557944,91.7294648 56.5494393,92.5429859 59.312243,92.5429859 C64.6101869,92.5429859 68.3840187,89.380169 70.5165421,83.0111549 C71.6997196,79.4793239 72.4174766,74.3812958 72.7320561,67.6421408 C71.2550467,69.6528451 69.6759813,71.1739718 68.021215,72.2387606 C64.9931776,74.1891831 61.2737383,75.1491831 56.8780374,75.1491831 C50.3419626,75.1491831 44.5449533,72.7260845 39.5128037,67.8494648 C34.4470093,62.987493 31.9247664,55.9536901 31.9247664,46.7767887 C31.9247664,37.2753803 34.4542991,29.5903099 39.5128037,23.6945352" id="Fill-2" fill="#FEFEFE"></path>
            </g>
        </g>
    </g>
</svg>