<?xml version="1.0" encoding="UTF-8" standalone="no"?>
<svg width="120px" height="120px" viewBox="0 0 120 120" version="1.1" xmlns="http://www.w3.org/2000/svg" xmlns:xlink="http://www.w3.org/1999/xlink">
    <!-- Generator: Sketch 48.2 (47327) - http://www.bohemiancoding.com/sketch -->
    <title>lineas/XL/_02ml</title>
    <desc>Created with Sketch.</desc>
    <defs></defs>
    <g id="Symbols" stroke="none" stroke-width="1" fill="none" fill-rule="evenodd">
        <g id="lineas/XL/_02ml">
            <g id="Page-1">
                <polygon id="Fill-1" fill="#FEFEFE" points="2.98186667 116.785067 117.005867 116.785067 117.005867 3.20053333 2.98186667 3.20053333"></polygon>
                <path d="M0,120 L120,120 L120,0 L0,0 L0,120 Z M5.95626667,113.584 L114.017067,113.584 L114.017067,6.41546667 L5.95626667,6.41546667 L5.95626667,113.584 Z" id="Fill-2" fill="#9E2F8A"></path>
                <path d="M36.8880533,85.5390933 C39.0821867,79.9476267 44.2384533,74.0084267 52.3968533,67.7652267 C59.4720533,62.3332267 64.0288533,58.40736 66.1152533,56.0606933 C69.31312,52.39616 70.90192,48.3838933 70.90192,44.02336 C70.90192,40.4596267 69.9925867,37.5188267 68.15472,35.1582933 C66.3440533,32.8116267 63.7056533,31.62336 60.2997867,31.62336 C55.6416533,31.62336 52.45072,33.4916267 50.7616533,37.2436267 C49.8053867,39.38816 49.2261867,42.8500267 49.0512533,47.5572267 L34.14832,47.5572267 C34.3973867,40.4020267 35.58192,34.62176 37.74992,30.23296 C41.85552,21.86016 49.12592,17.6590933 59.5728533,17.6590933 C67.8256533,17.6590933 74.3952533,20.1214933 79.3088533,25.0468267 C84.19632,29.9716267 86.6325867,36.4900267 86.6325867,44.5876267 C86.6325867,50.81696 84.89552,56.3358933 81.44912,61.1454933 C79.1808533,64.37536 75.45872,67.9390933 70.2960533,71.8788267 L64.1296533,76.5582933 C60.2997867,79.4990933 57.6613867,81.62816 56.24752,82.93216 C54.81392,84.2500267 53.6357867,85.7854933 52.6528533,87.50976 L86.7333867,87.50976 L86.7333867,102.067093 L33.26672,102.067093 C33.4149867,96.04096 34.62672,90.52256 36.8880533,85.5390933" id="Fill-3" fill="#9E2F8A"></path>
            </g>
        </g>
    </g>
</svg>