<?xml version="1.0" encoding="UTF-8"?>
<svg id="Capa_1" data-name="Capa 1" xmlns="http://www.w3.org/2000/svg" version="1.1" viewBox="0 0 375.5648804 348.3109741">
  <defs>
    <style>
      .cls-1 {
        fill: #76b82a;
      }

      .cls-1, .cls-2 {
        stroke-width: 0px;
      }

      .cls-2 {
        fill: #fff;
        fill-rule: evenodd;
      }
    </style>
  </defs>
  <g>
    <path class="cls-2" d="M371.7192688,332.9186707c0,6.3745422-5.1593018,11.5465393-11.5358276,11.5465393H15.3837328c-6.3766422,0-11.5381517-5.1719971-11.5381517-11.5465393V15.3815603c0-6.3745403,5.1615095-11.5334816,11.5381517-11.5334816l344.7997084-.0023351c6.3765259,0,11.5358276,5.1636119,11.5358276,11.5358176v317.5371094Z"/>
    <path class="cls-1" d="M375.5343018,14.6072388l-.0581665-.7803345-.0888062-.7723999-.147583-.7635498-.1737061-.7374268-.2020264-.7285156-.237915-.7158813-.2846069-.7047119-.303833-.6766968-.3289795-.6640625-.3840942-.6608276-.3901978-.6182861-.4277344-.6029053-.4620972-.5725098-.4813843-.5683594-.5178833-.5333252-.5210571-.503418-.567749-.4838257-.5731201-.4464111-.6005859-.4277954-.633606-.4035034-.6327515-.3684082-.6617432-.3469849-.6939697-.3035889-.6879272-.2825317-.7153931-.2400513-.7437134-.2022095-.7376099-.1737061-.7635498-.1466064-.774292-.0896606-.7804565-.0579224-.774292-.0308227v.0153809L15.383728.0177612V.0023193l-.774292.0308228-.7804565.0579224-.774292.0887451-.7636719.147522-.7374878.1737671-.7283936.2022095-.7162476.2376708-.7045898.2849121-.6771851.3035278-.6633301.3292236-.6611938.3838501-.6181641.3904419-.6029053.4277954-.5731201.461853-.567749.4814453-.536377.503418-.5025635.5356445-.4813843.5505981-.4620972.5879517-.4276733.6183472-.3879395.6177979-.3688354.6314087-.34729.6635742-.3031006.6916504-.2822876.7047119-.2409668.7005005-.2012939.7415771-.173584.7397461-.1477051.7635498-.0888672.7723999-.0581055.7803345-.0305786.774292v317.5371094l.0305786.774292.0581055.7803345.0888672.7724609.1477051.7658691.173584.7373657.2012939.7439575.2409668.7000122.2822876.7052002.3031006.6939087.34729.6613159.3688354.633728.3879395.6177979.4276733.6183472.4620972.5725098.4813843.5683594.5025635.5356445.536377.503418.5524292.4833374.5884399.4623413.6029053.4268188.6181641.3904419.645874.3688965.6640625.3469849.6917725.3031006.68927.2848511.7315674.2400513.7283936.1998901.7374878.1760254.7636719.147583.774292.0864258.7651978.0602417.7895508.0308228h344.7997437l.7888794-.0308228.7658691-.0602417.774292-.0864258.7635498-.147583.7376099-.1760254.7283936-.1998901.7307129-.2400513.6879272-.2848511.6939697-.3031006.6617432-.3469849.6327515-.3688965.633606-.4053955.6005859-.4249268.5875854-.4492798.5532837-.4833374.5355225-.503418.503418-.5356445.4813843-.5683594.4620972-.5725098.4277344-.6029053.3901978-.6332397.3840942-.6481934.3289795-.6617432.303833-.6790161.2846069-.7052002.237915-.7154541.2020264-.7285156.1737061-.7373657.147583-.7658691.0888062-.7724609.0581665-.7803345.0305786-.774292V15.3815308l-.0305786-.774292ZM360.1012655,22.2282303v304.2343158l-.0270401.3731303-.0557739.3654796-.0541386.359289-.0783171.361041-.1061164.35304-.1164536.3404835-.1266739.3293288-.1493339.3302632-.169833.3177068-.1639928.3042743-.2035309.2909003-.2057502.2904915-.2137513.2864033-.2320895.2578447-.2489092.254691-.2555087.2493765-.271686.2346008-.2723284.2260741-.2884474.207327-.2899074.18858-.3199261.1787685-.3177652.1572765-.3155459.1501515-.3418852.1259731-.3258247.1184392-.3528064.1041307-.3609242.0804195-.3573033.054489-.3675237.0540802-.3880812.028617H22.4361957l-.3880228-.028617-.3668228-.0540802-.3573033-.054489-.3609242-.0804195-.3529232-.1041307-.3257078-.1184392-.3448637-.1259731-.313385-.1501515-.3191668-.1572765-.3030479-.1787685-.3053256-.2032973-.2906667-.2051078-.2715692-.213576-.271686-.2346008-.2555087-.2493765-.2489092-.254691-.2327903-.2578447-.2138097-.2864033-.204991-.2757158-.2013116-.305676-.1786517-.31905-.1573933-.3177068-.1493339-.3154875-.1252722-.3293288-.1178552-.3552593-.1061164-.3382643-.0783171-.361041-.054197-.359289-.0564163-.3654796-.0263393-.3731303V21.8319144l.0263393-.3731303.0564163-.365538.054197-.3570697.0783171-.3632603.1061164-.336045.1178552-.3552593.1252722-.3293288.1493339-.3132098.1573933-.3199845.1786517-.3177068.2013116-.3047415.204991-.2757158.2138097-.272562.2327903-.2694667.2489092-.2555671.2555087-.2489092.2570271-.2319143.2862281-.213576.2906667-.2060422.3053256-.2032973.2884474-.1639928.3191668-.169833.3279855-.1496843.3302048-.1264403.3403667-.1166288.3529232-.1058828.3609242-.0782003.3573033-.0545475.3668228-.0562995.3740063-.0263393h.3961406v-.0147757l329.9244128-.0017521v.0142501h.3960238l.3734223.0272737.3675237.0554235.3573033.054489.3609242.0791347.3381475.1054156.3404835.1184392.3418852.1246882.3155459.1492171.3177652.1572765.3199261.1787685.2899074.1867695.2884474.2100135.2869873.2239132.2570271.2341335.2701092.2489092.2343087.2533478.2320895.2569103.2137513.2873377.2057502.2904915.2035309.3047415.1639928.2882138.169833.3199261.1493339.3279855.1266739.3293288.1164536.340542.1061164.3529816.0783171.361041.0541386.3570697.0557739.365538.0270401.3731303v.3963158Z"/>
  </g>
  <path class="cls-1" d="M201.8969269,297.6359558v-54.8603668h-107.2353516v-44.7402344L188.4037628,50.6750031h63.0273438v151.6210938h29.4721527v40.4794922h-29.4721527v54.8603668h-49.5341797ZM202.9623566,203.5382843v-108.8330002l-69.0639648,108.8330002h69.0639648Z"/>
</svg>