<?xml version="1.0" encoding="UTF-8" standalone="no"?>
<svg width="120px" height="120px" viewBox="0 0 120 120" version="1.1" xmlns="http://www.w3.org/2000/svg" xmlns:xlink="http://www.w3.org/1999/xlink">
    <!-- Generator: Sketch 48.2 (47327) - http://www.bohemiancoding.com/sketch -->
    <title>lineas/XL/12</title>
    <desc>Created with Sketch.</desc>
    <defs></defs>
    <g id="Symbols" stroke="none" stroke-width="1" fill="none" fill-rule="evenodd">
        <g id="lineas/XL/12">
            <g id="Page-1">
                <polygon id="Fill-1" fill="#AF9F00" points="0 119.983662 119.885047 119.983662 119.885047 0 0 0"></polygon>
                <g id="Group-6" transform="translate(10.093458, 15.758310)" fill="#FEFEFE">
                    <path d="M0.407607477,28.5111549 L0.407607477,16.6097465 C5.48854206,16.4018592 9.03134579,16.0012958 11.0915327,15.5410141 C14.3180748,14.7545352 16.9541495,13.1962254 18.9868598,10.8818592 C20.3741495,9.29369014 21.4317196,7.17143662 22.1315327,4.5004507 C22.5711589,2.91960563 22.7629346,1.73312676 22.7629346,0.968619718 L36.2477944,0.968619718 L36.2477944,89.6655211 L19.7147103,89.6655211 L19.7147103,28.5111549 L0.407607477,28.5111549 Z" id="Fill-2"></path>
                    <path d="M46.8622991,72.2363944 C49.1697757,66.3079437 54.6073458,60.0454085 63.1621121,53.4566761 C70.5908972,47.6837183 75.4385607,43.5806197 77.6215514,41.1101972 C80.9725794,37.2363944 82.6480935,32.9778028 82.6480935,28.3772394 C82.6480935,24.6082254 81.686972,21.4989296 79.7641682,18.9986479 C77.8279065,16.5496338 75.0813645,15.2741408 71.4981869,15.2741408 C66.5955701,15.2741408 63.2445421,17.2470986 61.4596822,21.2093521 C60.4710841,23.5028732 59.8531402,27.1163944 59.6608037,32.1096338 L43.9923925,32.1096338 C44.2256636,24.5490704 45.5030467,18.4425915 47.782486,13.7969577 C52.0806168,4.93104225 59.7432336,0.508507042 70.7422991,0.508507042 C79.4209907,0.508507042 86.3417383,3.12033803 91.4910841,8.32878873 C96.6129533,13.5304789 99.1811776,20.4307606 99.1811776,28.9710423 C99.1811776,35.5597746 97.3682804,41.3845634 93.7295888,46.4966761 C91.3542617,49.880338 87.426785,53.6200563 81.9751963,57.8042817 L75.5209907,62.7456901 C71.4695888,65.8549859 68.7101495,68.1028732 67.226972,69.468507 C65.7297757,70.8634366 64.4804299,72.5028732 63.4503364,74.3355493 L99.3045421,74.3355493 L99.3045421,89.6651268 L43.100243,89.6651268 C43.2241682,83.3068169 44.5004299,77.4966761 46.8622991,72.2363944" id="Fill-4"></path>
                </g>
            </g>
        </g>
    </g>
</svg>