<?xml version="1.0" encoding="UTF-8" standalone="no"?>
<svg width="120px" height="120px" viewBox="0 0 120 120" version="1.1" xmlns="http://www.w3.org/2000/svg" xmlns:xlink="http://www.w3.org/1999/xlink">
    <!-- Generator: Sketch 48.2 (47327) - http://www.bohemiancoding.com/sketch -->
    <title>lineas/XL/03</title>
    <desc>Created with Sketch.</desc>
    <defs></defs>
    <g id="Symbols" stroke="none" stroke-width="1" fill="none" fill-rule="evenodd">
        <g id="lineas/XL/03">
            <g id="Page-1">
                <polygon id="Fill-1" fill="#FDD700" points="0 119.983662 119.885047 119.983662 119.885047 0 0 0"></polygon>
                <path d="M48.8836262,77.1277183 C48.8836262,80.6910986 49.4056822,83.6156056 50.4632523,85.9615211 C52.4348411,90.2229296 55.9647477,92.3756056 61.1578318,92.3756056 C64.2896075,92.3756056 67.0580187,91.2026479 69.4069907,88.8567324 C71.7767103,86.503493 72.9301682,83.1327887 72.9301682,78.7164507 C72.9301682,72.8967324 70.759514,68.9992676 66.3918505,67.0465915 C63.9049346,65.948 59.9970841,65.3919437 54.6671776,65.3919437 L54.6671776,52.9130704 C59.9006355,52.823493 63.5410093,52.2595493 65.608486,51.2651831 C69.1939065,49.5502535 70.9658692,46.0832113 70.9658692,40.8572958 C70.9658692,37.472507 70.0456822,34.7260282 68.2254953,32.6026479 C66.3918505,30.4719437 63.8365234,29.4032113 60.5191402,29.4032113 C56.7139065,29.4032113 53.9253084,30.7322254 52.1325981,33.3226479 C50.3466168,35.9429296 49.4746542,39.4319437 49.5705421,43.7970141 L34.5144673,43.7970141 C34.6585794,39.3801127 35.3589533,35.1936338 36.5886729,31.2510986 C37.9282991,27.7851831 39.9957757,24.5857465 42.8185794,21.6460282 C44.9410093,19.552507 47.4279252,17.9936338 50.3466168,16.879831 C53.2378318,15.7665915 56.7890467,15.2172958 61.0339065,15.2172958 C68.8782056,15.2172958 75.1967103,17.4144789 80.0051215,21.7941972 C84.812972,26.1885634 87.2168972,32.0753239 87.2168972,39.4471549 C87.2168972,44.6657465 85.7673645,49.0674366 82.9103551,52.6533521 C81.1103551,54.9170141 79.1948411,56.4313803 77.250729,57.2482817 C78.7137196,57.2482817 80.8423178,58.6144789 83.5967103,61.3457465 C87.6974579,65.4730704 89.7509159,71.1147606 89.7509159,78.2263099 C89.7509159,85.7536338 87.3610093,92.3305352 82.532972,98.0172958 C77.7318505,103.710817 70.6154019,106.568845 61.2054953,106.568845 C49.5980187,106.568845 41.5271776,102.455606 37.0008224,94.2758873 C34.6109159,89.903493 33.2847477,84.1947606 33.017271,77.1277183 L48.8836262,77.1277183 Z" id="Fill-2" fill="#005FA9"></path>
            </g>
        </g>
    </g>
</svg>