<?xml version="1.0" encoding="UTF-8" standalone="no"?>
<svg width="120px" height="120px" viewBox="0 0 120 120" version="1.1" xmlns="http://www.w3.org/2000/svg" xmlns:xlink="http://www.w3.org/1999/xlink">
    <!-- Generator: Sketch 48.2 (47327) - http://www.bohemiancoding.com/sketch -->
    <title>lineas/XL/06</title>
    <desc>Created with Sketch.</desc>
    <defs></defs>
    <g id="Symbols" stroke="none" stroke-width="1" fill="none" fill-rule="evenodd">
        <g id="lineas/XL/06">
            <g id="Page-1">
                <polygon id="Fill-1" fill="#C0BAB0" points="0 119.983662 119.885047 119.983662 119.885047 0 0 0"></polygon>
                <path d="M51.3551215,88.1243944 C53.7310093,91.1407324 56.7254019,92.6511549 60.4128785,92.6511549 C63.9837196,92.6511549 66.8334393,91.1852394 68.8594206,88.2804507 C70.9330654,85.352 71.9424112,81.563831 71.9424112,76.9362254 C71.9424112,71.7412958 70.7889533,67.7705915 68.4332523,65.0286197 C66.1055888,62.272 63.2356822,60.8877746 59.8364299,60.8877746 C57.0753084,60.8877746 54.6579252,61.8004507 52.5366168,63.5886197 C49.3779252,66.2348169 47.7702617,70.5317183 47.7702617,76.4207324 C47.7702617,81.1931268 48.9792336,85.1114366 51.3551215,88.1243944 Z M70.4867103,38.1486197 C70.4867103,36.7018592 69.9921308,35.135662 68.9553084,33.436507 C67.2388598,30.6534085 64.6089533,29.2505915 61.0857757,29.2505915 C55.8394206,29.2505915 52.0897009,32.4494648 49.8719439,38.8128451 C48.6764299,42.3193239 47.8190467,47.4962254 47.3861495,54.3458028 C49.3913832,51.7891831 51.7196075,49.9114366 54.349514,48.7052394 C56.9996075,47.540169 60.000729,46.9621408 63.407271,46.9621408 C70.665028,46.9621408 76.6538131,49.6184789 81.3097009,54.9581972 C85.9857757,60.323831 88.314,67.140169 88.314,75.4522817 C88.314,83.7418592 86.0474579,91.0477746 81.474,97.3677746 C76.9145607,103.67538 69.8003551,106.844394 60.1723178,106.844394 C49.8444673,106.844394 42.2222243,102.161577 37.311757,92.8370704 C33.5003551,85.5412958 31.5848411,76.116507 31.5848411,64.5722817 C31.5848411,57.7925634 31.8461495,52.2973521 32.4024112,48.0489014 C33.342785,40.4866479 35.1556822,34.2229859 37.8820374,29.1914366 C40.196243,24.9204507 43.2859626,21.4877746 47.0839065,18.8787606 C50.874,16.2590423 55.3930654,14.9424225 60.6943738,14.9424225 C68.3031589,14.9424225 74.3799813,17.0534085 78.9192336,21.2804507 C83.445028,25.5103099 86.0132523,31.128338 86.5622243,38.1486197 L70.4867103,38.1486197 Z" id="Fill-2" fill="#FEFEFE"></path>
            </g>
        </g>
    </g>
</svg>