<?xml version="1.0" encoding="UTF-8" standalone="no"?>
<svg width="120px" height="120px" viewBox="0 0 120 120" version="1.1" xmlns="http://www.w3.org/2000/svg" xmlns:xlink="http://www.w3.org/1999/xlink">
    <!-- Generator: Sketch 48.2 (47327) - http://www.bohemiancoding.com/sketch -->
    <title>lineas/XL/08</title>
    <desc>Created with Sketch.</desc>
    <defs></defs>
    <g id="Symbols" stroke="none" stroke-width="1" fill="none" fill-rule="evenodd">
        <g id="lineas/XL/08">
            <g id="Page-1">
                <polygon id="Fill-1" fill="#EBA6C9" points="0 119.983662 119.885047 119.983662 119.885047 0 0 0"></polygon>
                <path d="M52.3487103,48.2554366 C54.1717009,50.2999437 56.7214206,51.3224789 59.9832897,51.3224789 C63.273757,51.3224789 65.8234766,50.2999437 67.6330093,48.2554366 C69.4150654,46.2176901 70.3335701,43.5951549 70.3335701,40.3585352 C70.3335701,36.8762817 69.4150654,34.1207887 67.6330093,32.1421972 C65.8234766,30.1647324 63.273757,29.1867042 59.9832897,29.1867042 C56.7214206,29.1867042 54.1717009,30.1647324 52.3487103,32.1421972 C50.5111402,34.1207887 49.5931963,36.8762817 49.5931963,40.3585352 C49.5931963,43.5951549 50.5111402,46.2176901 52.3487103,48.2554366 M51.333757,88.6520563 C53.4174953,91.0447324 56.3098318,92.2374085 60.0113271,92.2374085 C63.7122617,92.2374085 66.5911402,91.0447324 68.7158131,88.6520563 C70.7995514,86.2289577 71.8414206,82.8509296 71.8414206,78.4802254 C71.8414206,73.9613521 70.7720748,70.531493 68.6608598,68.1754366 C66.522729,65.8498028 63.6303925,64.6571268 60.0113271,64.6571268 C56.4062804,64.6571268 53.5274019,65.8498028 51.3752523,68.1754366 C49.2640374,70.531493 48.1952523,73.9613521 48.1952523,78.4802254 C48.1952523,82.8509296 49.2365607,86.2289577 51.333757,88.6520563 M34.5281495,66.1236056 C36.6393645,62.0937465 39.6685234,59.0486761 43.6986168,57.0261408 C39.7100187,54.1517746 37.1188037,51.0706479 35.9401121,47.7365634 C34.7468411,44.4176901 34.1580561,41.3067042 34.1580561,38.4098028 C34.1580561,31.9568451 36.3920748,26.460507 40.8881495,21.9337465 C45.384785,17.3782535 51.7453458,15.1106479 59.9558131,15.1106479 C68.1679626,15.1106479 74.5145047,17.3782535 79.0105794,21.9337465 C83.5206729,26.460507 85.7821682,31.9568451 85.7821682,38.4098028 C85.7821682,41.3067042 85.1793645,44.4176901 83.9866542,47.7365634 C82.7933832,51.0706479 80.2302056,53.9669859 76.2550654,56.4120563 C80.3266542,58.8492394 83.3558131,62.0937465 85.4255327,66.1236056 C87.4688972,70.1681127 88.482729,74.6650141 88.482729,79.6655775 C88.482729,87.1106479 85.9055327,93.4667042 80.8201121,98.7117746 C75.6931963,103.950085 68.5374953,106.57938 59.367028,106.57938 C50.1685234,106.57938 43.2326355,103.950085 38.5032897,98.7117746 C33.7745047,93.4667042 31.416,87.1106479 31.416,79.6655775 C31.416,74.6650141 32.4713271,70.1681127 34.5281495,66.1236056" id="Fill-2" fill="#FEFEFE"></path>
            </g>
        </g>
    </g>
</svg>