<?xml version="1.0" encoding="UTF-8" standalone="no"?>
<svg width="120px" height="120px" viewBox="0 0 120 120" version="1.1" xmlns="http://www.w3.org/2000/svg" xmlns:xlink="http://www.w3.org/1999/xlink">
    <!-- Generator: Sketch 48.2 (47327) - http://www.bohemiancoding.com/sketch -->
    <title>lineas/XL/_01ml</title>
    <desc>Created with Sketch.</desc>
    <defs></defs>
    <g id="Symbols" stroke="none" stroke-width="1" fill="none" fill-rule="evenodd">
        <g id="lineas/XL/_01ml">
            <g id="Page-1">
                <polygon id="Fill-1" fill="#FEFEFE" points="2.98186667 116.785067 117.005867 116.785067 117.005867 3.20053333 2.98186667 3.20053333"></polygon>
                <path d="M0,120 L120,120 L120,0 L0,0 L0,120 Z M5.95626667,113.584 L114.017067,113.584 L114.017067,6.41546667 L5.95626667,6.41546667 L5.95626667,113.584 Z" id="Fill-2" fill="#5F87C0"></path>
                <path d="M38.15888,43.94192 L38.15888,32.7184533 C43.0090133,32.4789867 46.3951467,32.1413867 48.3167467,31.66352 C51.38928,30.91792 53.9119467,29.45552 55.83408,27.2613867 C57.1546133,25.75632 58.1610133,23.74512 58.84048,21.24112 C59.2202133,19.7365867 59.4426133,18.6112533 59.4426133,17.8661867 L72.2410133,17.8661867 L72.2410133,101.86032 L56.51408,101.86032 L56.51408,43.94192 L38.15888,43.94192 Z" id="Fill-3" fill="#5F87C0"></path>
            </g>
        </g>
    </g>
</svg>