<?xml version="1.0" encoding="UTF-8" standalone="no"?>
<svg width="120px" height="120px" viewBox="0 0 120 120" version="1.1" xmlns="http://www.w3.org/2000/svg" xmlns:xlink="http://www.w3.org/1999/xlink">
    <!-- Generator: Sketch 48.2 (47327) - http://www.bohemiancoding.com/sketch -->
    <title>lineas/XL/_r</title>
    <desc>Created with Sketch.</desc>
    <defs></defs>
    <g id="Symbols" stroke="none" stroke-width="1" fill="none" fill-rule="evenodd">
        <g id="lineas/XL/_r">
            <g id="Page-1">
                <polygon id="Fill-1" fill="#FEFEFE" points="2.98186667 116.785067 117.005867 116.785067 117.005867 3.20053333 2.98186667 3.20053333"></polygon>
                <path d="M0,120 L120,120 L120,0 L0,0 L0,120 Z M5.95626667,113.584 L114.017067,113.584 L114.017067,6.41546667 L5.95626667,6.41546667 L5.95626667,113.584 Z" id="Fill-2" fill="#005FA9"></path>
                <path d="M43.8753067,32.9229867 L43.8753067,55.8877867 L61.7051733,55.8877867 C65.2603733,55.8877867 67.91744,55.4184533 69.7019733,54.4872533 C72.8475733,52.8877867 74.3937067,49.6456533 74.3937067,44.88192 C74.3937067,39.7053867 72.88704,36.2216533 69.8475733,34.4301867 C68.15584,33.4349867 65.5915733,32.9229867 62.18144,32.9229867 L43.8753067,32.9229867 Z M78.1473067,20.3101867 C81.0817067,21.67552 83.5537067,23.6445867 85.5761067,26.2680533 C87.2539733,28.44352 88.6027733,30.84672 89.56704,33.4632533 C90.5457067,36.0797867 91.03424,39.08032 91.03424,42.46432 C91.03424,46.4952533 90.0827733,50.4840533 88.19264,54.3944533 C86.2897067,58.3048533 83.1435733,61.0637867 78.75584,62.7133867 C82.4171733,64.3053867 85.0075733,66.5240533 86.5409067,69.4536533 C88.0737067,72.38272 88.82784,76.8477867 88.82784,82.80512 L88.82784,88.56512 C88.82784,92.44672 88.9723733,95.0845867 89.2769067,96.48512 C89.69984,98.6893867 90.71744,100.303253 92.3297067,101.362453 L92.3297067,103.509653 L74.0369067,103.509653 C73.53504,101.589653 73.1649067,100.068053 72.9537067,98.90272 C72.5169067,96.52032 72.27904,94.0600533 72.2523733,91.55072 L72.1339733,83.6376533 C72.06784,78.16992 71.1953067,74.5512533 69.5163733,72.73792 C67.8379733,70.9320533 64.67904,70.0077867 60.0667733,70.0077867 L43.8753067,70.0077867 L43.8753067,103.509653 L27.6705067,103.509653 L27.6705067,18.0920533 L65.6305067,18.0920533 C71.0635733,18.2125867 75.2267733,18.93792 78.1473067,20.3101867 Z" id="Fill-3" fill="#005FA9"></path>
            </g>
        </g>
    </g>
</svg>